<svg xmlns="http://www.w3.org/2000/svg" viewBox="0 0 1600 1000" preserveAspectRatio="xMidYMid slice">
  <defs>
    <linearGradient id="sky" x1="0" y1="0" x2="1" y2="1">
      <stop offset="0%" stop-color="#1a222b"/>
      <stop offset="55%" stop-color="#0e1114"/>
      <stop offset="100%" stop-color="#182028"/>
    </linearGradient>
    <linearGradient id="glow" x1="0.2" y1="0" x2="0.8" y2="1">
      <stop offset="0%" stop-color="#c4a574" stop-opacity="0.35"/>
      <stop offset="100%" stop-color="#c4a574" stop-opacity="0"/>
    </linearGradient>
  </defs>
  <rect width="1600" height="1000" fill="url(#sky)"/>
  <circle cx="1180" cy="220" r="220" fill="url(#glow)"/>
  <path d="M0 720 L240 640 L420 700 L640 560 L860 680 L1100 520 L1320 640 L1600 580 L1600 1000 L0 1000 Z" fill="#12161b"/>
  <path d="M0 780 L260 700 L480 760 L700 620 L920 740 L1160 600 L1400 720 L1600 660 L1600 1000 L0 1000 Z" fill="#0a0c0f" opacity="0.85"/>
  <rect x="980" y="380" width="90" height="220" fill="#1c242c"/>
  <rect x="1085" y="320" width="120" height="280" fill="#232b34"/>
  <rect x="1220" y="400" width="70" height="200" fill="#1a2128"/>
  <rect x="1010" y="420" width="18" height="18" fill="#c4a574" opacity="0.45"/>
  <rect x="1120" y="360" width="22" height="22" fill="#c4a574" opacity="0.3"/>
</svg>
